<svg xmlns="http://www.w3.org/2000/svg" width="256" height="256" viewBox="0 0 100 100">
<rect width="100" height="100" rx="50" fill="#e17527"></rect>
<path d="M17.57 68.54L17.57 68.54Q14.93 68.54 14.93 66.38L14.93 66.38L14.93 32.48Q16.01 31.40 18.17 31.40L18.17 31.40Q19.61 31.40 20.63 31.97Q21.65 32.54 22.49 34.04L22.49 34.04L33.95 53.24Q34.67 54.50 35.45 55.91Q36.23 57.32 36.95 58.73Q37.67 60.14 38.30 61.37Q38.93 62.60 39.35 63.44L39.35 63.44L39.59 63.38Q39.11 58.52 39.02 53.60Q38.93 48.68 38.93 44.00L38.93 44.00L38.93 31.88Q39.29 31.76 39.89 31.61Q40.49 31.46 41.21 31.46L41.21 31.46Q43.85 31.46 43.85 33.62L43.85 33.62L43.85 67.58Q43.31 68.06 42.47 68.33Q41.63 68.60 40.61 68.60L40.61 68.60Q39.17 68.60 38.15 68.03Q37.13 67.46 36.29 65.96L36.29 65.96L24.89 46.76Q24.17 45.56 23.36 44.12Q22.55 42.68 21.80 41.30Q21.05 39.92 20.42 38.66Q19.79 37.40 19.37 36.56L19.37 36.56L19.13 36.62Q19.43 39.50 19.61 43.19Q19.79 46.88 19.79 50.18L19.79 50.18L19.79 68.12Q19.49 68.24 18.86 68.39Q18.23 68.54 17.57 68.54ZM80.09 49.58L80.09 49.58Q80.09 45.74 78.92 43.01Q77.75 40.28 75.74 38.54Q73.73 36.80 71.06 35.99Q68.39 35.18 65.33 35.18L65.33 35.18Q63.41 35.18 62.00 35.30Q60.59 35.42 59.39 35.66L59.39 35.66L59.39 64.22Q60.83 64.58 62.48 64.70Q64.13 64.82 65.87 64.82L65.87 64.82Q72.95 64.82 76.52 60.98Q80.09 57.14 80.09 49.58ZM85.07 49.58L85.07 49.58Q85.07 54.50 83.72 58.13Q82.37 61.76 79.88 64.16Q77.39 66.56 73.85 67.73Q70.31 68.90 65.93 68.90L65.93 68.90Q64.01 68.90 61.61 68.75Q59.21 68.60 57.05 67.94L57.05 67.94Q54.53 67.16 54.53 65.18L54.53 65.18L54.53 34.34Q54.53 33.38 55.01 32.87Q55.49 32.36 56.51 32.06L56.51 32.06Q58.37 31.46 60.71 31.28Q63.05 31.10 65.39 31.10L65.39 31.10Q69.77 31.10 73.40 32.27Q77.03 33.44 79.61 35.75Q82.19 38.06 83.63 41.51Q85.07 44.96 85.07 49.58Z" fill="#ffffff"></path>
<style>
        path { fill: #000; }
        @media (prefers-color-scheme: dark) {
            path { fill: #FFF; }
        }
    </style>
</svg>